<svg width="470" height="109" viewBox="0 0 470 109" fill="none" xmlns="http://www.w3.org/2000/svg">
<path fill-rule="evenodd" clip-rule="evenodd" d="M410.09 22.1011C414.21 21.7555 416.344 22.497 419.784 25.7475C421.152 27.8891 421.709 29.3291 422.34 32.3355C422.825 34.6894 423.085 36.1319 423.539 38.7936C423.817 41.1204 423.961 42.4081 423.92 44.2672L425.774 43.9915C425.398 39.6879 425.335 37.2045 425.508 32.6387C426.327 25.2988 427.914 21.9951 432.162 20.5888C436.409 19.1825 438.825 20.2612 441.403 24.1919C442.137 26.0041 442.333 27.0153 442.324 28.811C441.491 31.959 440.741 33.8529 438.735 37.5295C435.402 42.4828 433.983 44.2692 431.935 46.3936L433.615 47.9136C435.036 45.8622 436.097 44.5475 438.299 42.0186C442.553 37.8607 444.692 36.3286 448.136 34.8044C451.12 33.8057 452.71 33.953 455.377 35.4975C458.629 37.6196 459.495 39.2841 459.203 43.1133C458.435 45.9988 457.559 47.3259 454.972 49.0516C450.973 50.9531 448.69 51.6594 444.579 52.5878C441.262 53.1335 439.452 53.2491 436.302 53.1549L436.084 55.3995C439.997 54.4784 442.221 54.3766 446.215 54.5567C450.143 54.8742 452.304 55.2758 456.083 56.4075C458.756 57.7734 459.678 58.907 460.625 61.3731C461.17 63.8844 461.1 65.0376 460.553 66.8034C459.471 68.944 458.59 69.8666 456.496 70.946C454.219 72.0419 452.81 72.064 450.073 71.2375C442.595 67.7082 438.89 65.5004 434.202 60.6565L433.122 62.3655C436.346 64.6836 438.046 66.1516 440.657 69.43C444.314 73.2624 445.447 75.3991 446.572 79.0581C446.532 83.7141 445.502 85.5609 442.078 87.6899L410.09 22.1011ZM10 54.6676C10 49.9603 10.8951 45.5771 12.6853 41.5181C14.4755 37.4309 17.0613 33.8934 20.4428 30.9055C23.8526 27.8894 28.0013 25.5217 32.8888 23.8022C37.8047 22.0828 43.36 21.2231 49.5546 21.2231C54.982 21.2231 59.9548 21.7727 64.4728 22.872C69.0194 23.9432 73.2391 25.5921 77.132 27.8189L70.909 37.9665C69.744 37.2054 68.3942 36.5289 66.8598 35.937C65.3537 35.345 63.734 34.8517 62.0007 34.4571C60.2957 34.0343 58.5198 33.7101 56.6727 33.4846C54.8541 33.2591 53.0497 33.1464 51.2596 33.1464C46.9404 33.1464 43.0901 33.682 39.7086 34.7531C36.3271 35.796 33.4713 37.2759 31.1413 39.1926C28.8396 41.0812 27.0778 43.3503 25.8559 45.9999C24.6625 48.6214 24.0658 51.5106 24.0658 54.6676C24.0658 57.9373 24.6909 60.9393 25.9412 63.6735C27.1915 66.4077 28.9959 68.7754 31.3544 70.7768C33.7413 72.7499 36.6397 74.3002 40.0496 75.4277C43.4879 76.527 47.3666 77.0767 51.6858 77.0767C53.6465 77.0767 55.5929 76.9357 57.5252 76.6539C59.4575 76.372 61.3187 75.9915 63.1089 75.5123C64.9275 75.0049 66.6751 74.413 68.3516 73.7365C70.0281 73.0318 71.591 72.2707 73.0402 71.4533L79.2632 81.6008C75.626 83.9122 71.4205 85.7302 66.6466 87.0551C61.8728 88.3517 56.8006 89 51.43 89C44.5819 89 38.572 88.1262 33.4003 86.3786C28.2287 84.6027 23.9095 82.1786 20.4428 79.1062C16.976 76.0055 14.3618 72.3694 12.6 68.1976C10.8667 63.9977 10 59.4876 10 54.6676ZM116.9 22.0264H131.221L163.445 88.1121H149.251L143.923 76.9921H105.008L99.8504 88.1121H85.6141L116.9 22.0264ZM138.595 65.9567L124.188 35.937L110.165 65.9567H138.595ZM173.845 22.0264H187.356L211.567 46.1268L235.777 22.0264H249.288V88.1121H235.777V40.5879L211.567 63.7158L187.356 40.5879V88.1121H173.845V22.0264ZM266.551 22.0264H280.148V88.1121H266.551V22.0264ZM297.41 22.0264H310.922V76.3579H349.667V88.1121H297.41V22.0264ZM385.513 22.0264H399.835L432.058 88.1121H417.864L412.536 76.9921H373.621L368.464 88.1121H354.227L385.513 22.0264ZM407.208 65.9567L392.802 35.937L378.779 65.9567H407.208Z" fill="#202020"/>
</svg>
